<svg xmlns="http://www.w3.org/2000/svg" xmlns:xlink="http://www.w3.org/1999/xlink" width="372" zoomAndPan="magnify" viewBox="0 0 279 203.999996" height="272" preserveAspectRatio="xMidYMid meet" version="1.0"><defs><clipPath id="36d76870c3"><path d="M 115 40 L 279 40 L 279 204 L 115 204 Z M 115 40 " clip-rule="nonzero"/></clipPath><clipPath id="dfc89b73f0"><path d="M 75.289062 137.605469 L 212.703125 0.328125 L 278.703125 66.394531 L 141.289062 203.671875 Z M 75.289062 137.605469 " clip-rule="nonzero"/></clipPath><clipPath id="a447e42277"><path d="M 125.082031 95.789062 C 129.710938 86.378906 136.175781 76.78125 144.035156 68.929688 C 151.894531 61.078125 160.804688 54.867188 170.171875 50.300781 C 170.394531 50.226562 170.542969 50.078125 170.765625 50.003906 C 206.515625 33.4375 251.078125 39.480469 278.703125 66.394531 L 141.289062 203.671875 C 114.253906 175.867188 107.957031 131.597656 125.082031 95.789062 Z M 125.082031 95.789062 " clip-rule="nonzero"/></clipPath><clipPath id="015029d1a4"><path d="M 0 42 L 166 42 L 166 204 L 0 204 Z M 0 42 " clip-rule="nonzero"/></clipPath><clipPath id="15f7258732"><path d="M 64.484375 2.328125 L 205.558594 135.839844 L 141.371094 203.664062 L 0.296875 70.152344 Z M 64.484375 2.328125 " clip-rule="nonzero"/></clipPath><clipPath id="2c9c55b1df"><path d="M 107.679688 50.929688 C 117.21875 55.292969 126.992188 61.480469 135.0625 69.117188 C 143.128906 76.757812 149.585938 85.488281 154.414062 94.722656 C 154.496094 94.941406 154.648438 95.085938 154.726562 95.308594 C 172.292969 130.582031 167.5 175.292969 141.371094 203.664062 L 0.296875 70.152344 C 27.332031 42.347656 71.40625 34.8125 107.679688 50.929688 Z M 107.679688 50.929688 " clip-rule="nonzero"/></clipPath></defs><g clip-path="url(#36d76870c3)"><g clip-path="url(#dfc89b73f0)"><g clip-path="url(#a447e42277)"><path fill="#3ddb85" d="M 75.289062 137.605469 L 212.703125 0.328125 L 278.703125 66.394531 L 141.289062 203.671875 Z M 75.289062 137.605469 " fill-opacity="1" fill-rule="nonzero"/></g></g></g><g clip-path="url(#015029d1a4)"><g clip-path="url(#15f7258732)"><g clip-path="url(#2c9c55b1df)"><path fill="#3d16a8" d="M 64.484375 2.328125 L 205.558594 135.839844 L 141.371094 203.664062 L 0.296875 70.152344 Z M 64.484375 2.328125 " fill-opacity="1" fill-rule="nonzero"/></g></g></g></svg>