<svg xmlns="http://www.w3.org/2000/svg" xmlns:xlink="http://www.w3.org/1999/xlink" width="398" zoomAndPan="magnify" viewBox="0 0 298.5 265.499997" height="354" preserveAspectRatio="xMidYMid meet" version="1.0"><defs><g/><clipPath id="2342ae8f3a"><path d="M 16.839844 0.339844 L 281.09375 0.339844 L 281.09375 264.59375 L 16.839844 264.59375 Z M 16.839844 0.339844 " clip-rule="nonzero"/></clipPath><clipPath id="fdea7d9dd4"><path d="M 148.996094 0.339844 C 76.007812 0.339844 16.839844 59.507812 16.839844 132.496094 C 16.839844 205.484375 76.007812 264.652344 148.996094 264.652344 C 221.984375 264.652344 281.152344 205.484375 281.152344 132.496094 C 281.152344 59.507812 221.984375 0.339844 148.996094 0.339844 Z M 148.996094 0.339844 " clip-rule="nonzero"/></clipPath></defs><g clip-path="url(#2342ae8f3a)"><g clip-path="url(#fdea7d9dd4)"><path stroke-linecap="butt" transform="matrix(0.74859, 0, 0, 0.74859, 16.841401, 0.3414)" fill="none" stroke-linejoin="miter" d="M 176.538105 -0.00207865 C 79.037119 -0.00207865 -0.00208 79.03712 -0.00208 176.538106 C -0.00208 274.039092 79.037119 353.078292 176.538105 353.078292 C 274.039091 353.078292 353.07829 274.039092 353.07829 176.538106 C 353.07829 79.03712 274.039091 -0.00207865 176.538105 -0.00207865 Z M 176.538105 -0.00207865 " stroke="#3ddb85" stroke-width="8" stroke-opacity="1" stroke-miterlimit="4"/></g></g><g fill="#3ddb85" fill-opacity="1"><g transform="translate(38.129434, 160.1983)"><g><path d="M 10.207031 -16.089844 L 27.523438 -16.089844 C 41.488281 -16.089844 48.269531 -23.929688 48.269531 -33.402344 C 48.269531 -42.632812 41.242188 -51.941406 27.441406 -51.941406 L 8.902344 -51.941406 C 8.167969 -51.941406 7.515625 -51.371094 7.515625 -50.554688 L 7.515625 -1.308594 C 7.515625 -0.488281 8.167969 0 8.820312 0 C 9.554688 0 10.207031 -0.488281 10.207031 -1.386719 Z M 10.207031 -18.621094 L 10.207031 -49.410156 L 27.523438 -49.410156 C 38.710938 -49.410156 45.410156 -41.40625 45.492188 -33.402344 C 45.652344 -26.054688 40.265625 -18.621094 27.523438 -18.621094 Z M 10.207031 -18.621094 "/></g></g></g><g fill="#3ddb85" fill-opacity="1"><g transform="translate(90.395961, 160.1983)"><g><path d="M 28.339844 -53.414062 C 27.851562 -53.414062 27.359375 -53.167969 27.113281 -52.679688 L 1.144531 -1.46875 C 0.570312 -0.328125 1.46875 0.570312 2.367188 0.570312 C 2.859375 0.570312 3.265625 0.328125 3.511719 -0.164062 L 10.78125 -14.621094 L 45.898438 -14.621094 L 53.167969 -0.164062 C 53.414062 0.328125 53.820312 0.570312 54.3125 0.570312 C 55.210938 0.570312 56.109375 -0.328125 55.535156 -1.46875 L 29.484375 -52.679688 C 29.238281 -53.167969 28.828125 -53.414062 28.339844 -53.414062 Z M 28.339844 -49.410156 L 44.59375 -17.070312 L 12.003906 -17.070312 Z M 28.339844 -49.410156 "/></g></g></g><g fill="#3ddb85" fill-opacity="1"><g transform="translate(147.317474, 160.1983)"><g><path d="M 9.066406 0 L 44.675781 0 C 46.472656 0 46.550781 -2.53125 44.675781 -2.53125 L 10.371094 -2.53125 L 10.371094 -50.390625 C 10.371094 -51.453125 9.71875 -51.941406 8.984375 -51.941406 C 8.332031 -51.941406 7.59375 -51.453125 7.59375 -50.390625 L 7.59375 -1.550781 C 7.59375 -0.570312 8.003906 0 9.066406 0 Z M 9.066406 0 "/></g></g></g><g fill="#3ddb85" fill-opacity="1"><g transform="translate(194.357348, 160.1983)"><g><path d="M 55.375 -51.125 L 32.832031 -15.761719 L 10.128906 -51.125 C 9.800781 -51.699219 9.308594 -51.941406 8.820312 -51.941406 C 8.167969 -51.941406 7.515625 -51.453125 7.515625 -50.472656 L 7.515625 -1.46875 C 7.515625 -0.488281 8.25 0 8.902344 0 C 9.636719 0 10.289062 -0.488281 10.289062 -1.46875 L 10.289062 -45.898438 L 31.363281 -12.984375 C 32.015625 -11.761719 33.566406 -11.761719 34.21875 -12.984375 L 55.292969 -46.0625 L 55.292969 -1.46875 C 55.292969 -0.488281 55.945312 0 56.679688 0 C 57.332031 0 58.066406 -0.488281 58.066406 -1.46875 L 58.066406 -50.472656 C 58.066406 -51.453125 57.414062 -51.941406 56.761719 -51.941406 C 56.269531 -51.941406 55.78125 -51.699219 55.375 -51.125 Z M 55.375 -51.125 "/></g></g></g></svg>