<svg xmlns="http://www.w3.org/2000/svg" xmlns:xlink="http://www.w3.org/1999/xlink" width="500" zoomAndPan="magnify" viewBox="0 0 375 374.999991" height="500" preserveAspectRatio="xMidYMid meet" version="1.0"><defs><clipPath id="e652c94b46"><path d="M 163 126 L 327 126 L 327 290 L 163 290 Z M 163 126 " clip-rule="nonzero"/></clipPath><clipPath id="188b6e375b"><path d="M 123.289062 223.105469 L 260.703125 85.828125 L 326.703125 151.894531 L 189.289062 289.171875 Z M 123.289062 223.105469 " clip-rule="nonzero"/></clipPath><clipPath id="9778815a76"><path d="M 173.082031 181.289062 C 177.710938 171.878906 184.175781 162.28125 192.035156 154.429688 C 199.894531 146.578125 208.804688 140.367188 218.167969 135.800781 C 218.394531 135.726562 218.542969 135.578125 218.765625 135.503906 C 254.515625 118.9375 299.078125 124.980469 326.703125 151.894531 L 189.289062 289.171875 C 162.253906 261.367188 155.957031 217.097656 173.082031 181.289062 Z M 173.082031 181.289062 " clip-rule="nonzero"/></clipPath><clipPath id="5a2cfeff13"><path d="M 48 128 L 214 128 L 214 290 L 48 290 Z M 48 128 " clip-rule="nonzero"/></clipPath><clipPath id="ea6e555f9f"><path d="M 112.484375 87.828125 L 253.558594 221.339844 L 189.371094 289.164062 L 48.296875 155.652344 Z M 112.484375 87.828125 " clip-rule="nonzero"/></clipPath><clipPath id="452999a491"><path d="M 155.679688 136.429688 C 165.21875 140.792969 174.992188 146.980469 183.0625 154.617188 C 191.128906 162.257812 197.585938 170.988281 202.414062 180.222656 C 202.496094 180.441406 202.648438 180.585938 202.726562 180.808594 C 220.292969 216.082031 215.5 260.792969 189.371094 289.164062 L 48.296875 155.652344 C 75.332031 127.847656 119.40625 120.3125 155.679688 136.429688 Z M 155.679688 136.429688 " clip-rule="nonzero"/></clipPath></defs><g clip-path="url(#e652c94b46)"><g clip-path="url(#188b6e375b)"><g clip-path="url(#9778815a76)"><path fill="#3ddb85" d="M 123.289062 223.105469 L 260.703125 85.828125 L 326.703125 151.894531 L 189.289062 289.171875 Z M 123.289062 223.105469 " fill-opacity="1" fill-rule="nonzero"/></g></g></g><g clip-path="url(#5a2cfeff13)"><g clip-path="url(#ea6e555f9f)"><g clip-path="url(#452999a491)"><path fill="#3d16a8" d="M 112.484375 87.828125 L 253.558594 221.339844 L 189.371094 289.164062 L 48.296875 155.652344 Z M 112.484375 87.828125 " fill-opacity="1" fill-rule="nonzero"/></g></g></g></svg>